<?xml version="1.0" encoding="UTF-8"?>
<svg id="Layer_1" data-name="Layer 1" xmlns="http://www.w3.org/2000/svg" version="1.1" viewBox="0 0 16 16">
  <rect x="1" y="1" width="6" height="6" rx="1" ry="1" fill="#d2d3d8" stroke-width="0"/>
  <rect x="1" y="9" width="6" height="6" rx="1" ry="1" fill="#d2d3d8" stroke-width="0"/>
  <rect x="9" y="9" width="6" height="6" rx="1" ry="1" fill="#d2d3d8" stroke-width="0"/>
  <path d="M14.9,1.6c-.1-.2-.3-.4-.5-.5-.1,0-.2,0-.4,0h-4c-.6,0-1,.4-1,1s.4,1,1,1h1.6l-2.3,2.3c-.4.4-.4,1,0,1.4,0,0,0,0,0,0,.4.4,1,.4,1.4,0,0,0,0,0,0,0l2.3-2.3v1.6c0,.6.4,1,1,1s1-.4,1-1V2c0-.1,0-.3,0-.4Z" fill="#d2d3d8" stroke-width="0"/>
</svg>